HIERARCHY
ROOT Pelvis
{
	OFFSET 0.000000 0.000000 0.000000
	CHANNELS 6 Xposition Yposition Zposition Xrotation Yrotation Zrotation
	JOINT LeftUpLeg_virtual
	{
		OFFSET 0.000000 0.000000 0.000000
		CHANNELS 3 Xrotation Yrotation Zrotation
		JOINT LeftUpLeg
		{
			OFFSET 18.735201 -5.666702 -4.541200
			CHANNELS 3 Xrotation Yrotation Zrotation
			JOINT LeftLeg
			{
				OFFSET -0.021200 -31.938179 0.493100
				CHANNELS 3 Xrotation Yrotation Zrotation
				JOINT LeftFoot
				{
					OFFSET 0.021200 -31.938179 -4.336299
					CHANNELS 3 Xrotation Yrotation Zrotation
					JOINT LeftToeBase
					{
						OFFSET 0.943001 -26.722000 15.023500
						CHANNELS 3 Xrotation Yrotation Zrotation
						End Site
						{
							OFFSET 0 0 0
						}
					}
				}
			}
		}
	}
	JOINT RightUpLeg_virtual
	{
		OFFSET 0.000000 0.000000 0.000000
		CHANNELS 3 Xrotation Yrotation Zrotation
		JOINT RightUpLeg
		{
			OFFSET -18.735201 -5.666702 -4.541200
			CHANNELS 3 Xrotation Yrotation Zrotation
			JOINT RightLeg
			{
				OFFSET 0.018946 -31.938133 0.493100
				CHANNELS 3 Xrotation Yrotation Zrotation
				JOINT RightFoot
				{
					OFFSET -0.018946 -31.938126 -4.336299
					CHANNELS 3 Xrotation Yrotation Zrotation
					JOINT RightToeBase
					{
						OFFSET -0.943001 -26.722004 15.023500
						CHANNELS 3 Xrotation Yrotation Zrotation
						End Site
						{
							OFFSET 0 0 0
						}
					}
				}
			}
		}
	}
	JOINT Hips_virtual
	{
		OFFSET 0.000000 0.000000 0.000000
		CHANNELS 3 Xrotation Yrotation Zrotation
		JOINT Hips
		{
			OFFSET -0.000000 -0.000000 -0.000000
			CHANNELS 3 Xrotation Yrotation Zrotation
			JOINT Spine
			{
				OFFSET 0.000000 10.199997 -0.299500
				CHANNELS 3 Xrotation Yrotation Zrotation
				JOINT Spine1
				{
					OFFSET 0.000000 11.900002 -1.516600
					CHANNELS 3 Xrotation Yrotation Zrotation
					JOINT Spine2
					{
						OFFSET 0.000000 13.600006 -2.842500
						CHANNELS 3 Xrotation Yrotation Zrotation
						JOINT Neck_virtual
						{
							OFFSET 0.000000 0.000000 0.000000
							CHANNELS 3 Xrotation Yrotation Zrotation
							JOINT Neck
							{
								OFFSET 0.000000 9.624100 -2.890100
								CHANNELS 3 Xrotation Yrotation Zrotation
								JOINT Head
								{
									OFFSET 0.000000 14.068802 -1.351900
									CHANNELS 3 Xrotation Yrotation Zrotation
									End Site
									{
										OFFSET 0 0 0
									}
								}
							}
						}
						JOINT LeftShoulder_virtual
						{
							OFFSET 0.000000 0.000000 0.000000
							CHANNELS 3 Xrotation Yrotation Zrotation
							JOINT LeftShoulder
							{
								OFFSET 15.263000 10.923401 -0.547700
								CHANNELS 3 Xrotation Yrotation Zrotation
								JOINT LeftArm
								{
									OFFSET 25.438599 -2.830597 -13.032500
									CHANNELS 3 Xrotation Yrotation Zrotation
									JOINT LeftForeArm
									{
										OFFSET 29.960503 0.000000 0.000000
										CHANNELS 3 Xrotation Yrotation Zrotation
										JOINT LeftHand
										{
											OFFSET 27.849251 0.000000 0.000000
											CHANNELS 3 Xrotation Yrotation Zrotation
											End Site
											{
												OFFSET 0 0 0
											}
										}
									}
								}
							}
						}
						JOINT RightShoulder_virtual
						{
							OFFSET 0.000000 0.000000 0.000000
							CHANNELS 3 Xrotation Yrotation Zrotation
							JOINT RightShoulder
							{
								OFFSET -15.263000 10.923401 -0.547700
								CHANNELS 3 Xrotation Yrotation Zrotation
								JOINT RightArm
								{
									OFFSET -25.438599 -2.830597 -13.032500
									CHANNELS 3 Xrotation Yrotation Zrotation
									JOINT RightForeArm
									{
										OFFSET -29.960503 0.000000 0.000000
										CHANNELS 3 Xrotation Yrotation Zrotation
										JOINT RightHand
										{
											OFFSET -27.849251 0.000000 0.000000
											CHANNELS 3 Xrotation Yrotation Zrotation
											End Site
											{
												OFFSET 0 0 0
											}
										}
									}
								}
							}
						}
					}
				}
			}
		}
	}
}
MOTION
Frames: 11
Frame Time: 0.03333333
-4.736076 119.346725 10.091293 0.000000 0.000000 0.000000 3.584474 -37.085065 -0.133339 -99.608590 -21.616878 20.268602 82.707744 -1.012647 10.051595 22.640696 -5.654650 -5.099192 0.000000 0.000000 0.000000 3.360865 -36.023217 -1.293205 -132.824216 -34.137531 -10.022896 115.125215 15.822825 -8.047801 30.977729 8.563866 38.956134 0.000000 0.000000 0.000000 3.319636 -35.321237 -0.116985 -0.904936 0.073892 -0.786568 32.879445 -5.300546 -10.122342 15.936471 1.064369 -2.901117 0.000000 0.000000 0.000000 14.244315 1.316793 -3.631344 -2.411556 4.119581 -2.491106 0.000000 0.000000 0.000000 13.781368 1.419553 -4.229874 11.877947 -16.959338 4.755308 -66.587692 -9.569051 -7.728575 43.687413 -26.486418 29.267026 0.000000 0.000000 0.000000 13.878503 1.561960 -3.641364 18.946649 23.366470 -13.583033 -34.626074 6.174301 5.618749 -48.305837 46.462095 37.218971 0.000000 0.000000 0.000000 
-4.717469 119.307877 10.031309 0.000000 0.000000 0.000000 3.565316 -37.198491 -0.089402 -99.562739 -21.641552 20.404065 82.742995 -1.197103 9.975092 22.630271 -5.476349 -5.118475 0.000000 0.000000 0.000000 3.333307 -36.119816 -1.266474 -132.410252 -34.157745 -10.049362 114.953641 16.001772 -8.075917 30.581800 8.508679 39.010748 0.000000 0.000000 0.000000 3.301216 -35.475244 -0.065091 -0.925364 0.018566 -0.796548 32.889191 -5.342839 -10.059769 15.983858 1.045999 -2.903879 0.000000 0.000000 0.000000 14.268177 1.302684 -3.620405 -2.405523 4.112342 -2.468701 0.000000 0.000000 0.000000 13.789998 1.389348 -4.236967 11.668257 -17.086142 4.036276 -65.773684 -9.002597 -7.617711 43.549460 -26.408040 29.015033 0.000000 0.000000 0.000000 13.898837 1.546693 -3.645534 18.643705 23.587720 -12.730741 -33.536915 6.605350 5.545141 -47.954113 46.175323 36.493018 0.000000 0.000000 0.000000 
-4.702471 119.265984 9.962231 0.000000 0.000000 0.000000 3.565326 -37.269918 -0.018674 -99.467464 -21.619448 20.528118 82.667303 -1.398464 9.890399 22.480676 -5.219337 -5.044837 0.000000 0.000000 0.000000 3.316329 -36.181192 -1.210321 -131.930828 -34.137005 -10.053394 114.714393 16.174429 -8.120275 30.228884 8.495861 39.082353 0.000000 0.000000 0.000000 3.295313 -35.602358 0.008321 -0.938083 -0.026985 -0.803918 32.882464 -5.388312 -10.004892 15.982195 1.024071 -2.909536 0.000000 0.000000 0.000000 14.240579 1.279420 -3.613010 -2.407371 4.107649 -2.443568 0.000000 0.000000 0.000000 13.774295 1.353092 -4.242626 11.518704 -17.167679 3.446036 -64.993731 -8.255265 -7.440417 43.423348 -26.250300 28.779289 0.000000 0.000000 0.000000 13.881098 1.526809 -3.646431 18.347891 23.721974 -11.923968 -32.577810 6.770055 5.565276 -47.643711 45.921124 35.882003 0.000000 0.000000 0.000000 
-4.693806 119.226120 9.876894 0.000000 0.000000 0.000000 3.589543 -37.300329 0.087061 -99.324194 -21.528994 20.648854 82.471734 -1.616960 9.790934 22.274989 -4.909415 -4.899775 0.000000 0.000000 0.000000 3.314118 -36.207260 -1.114431 -131.415285 -34.084089 -10.059854 114.402902 16.329352 -8.165435 29.880531 8.482330 39.148892 0.000000 0.000000 0.000000 3.303491 -35.701570 0.105437 -0.954836 -0.045134 -0.800644 32.851557 -5.429962 -9.963323 15.932649 0.998887 -2.921250 0.000000 0.000000 0.000000 14.171299 1.250708 -3.612977 -2.415404 4.107252 -2.419268 0.000000 0.000000 0.000000 13.734646 1.316145 -4.247729 11.414199 -17.236512 2.898553 -64.272203 -7.280387 -7.229792 43.356668 -26.080154 28.610732 0.000000 0.000000 0.000000 13.828507 1.504203 -3.647917 18.047916 23.818955 -11.102281 -31.745568 6.663013 5.628562 -47.383092 45.692135 35.419633 0.000000 0.000000 0.000000 
-4.690764 119.187492 9.776638 0.000000 0.000000 0.000000 3.623539 -37.291525 0.216172 -99.158521 -21.349797 20.779459 82.181587 -1.846443 9.659386 22.126429 -4.575816 -4.726742 0.000000 0.000000 0.000000 3.324258 -36.208226 -0.979076 -130.910807 -34.011788 -10.110266 114.071187 16.451200 -8.187286 29.529343 8.414376 39.185294 0.000000 0.000000 0.000000 3.315566 -35.760118 0.218087 -0.964541 -0.038254 -0.797832 32.791533 -5.464054 -9.929481 15.843648 0.974462 -2.938757 0.000000 0.000000 0.000000 14.069541 1.220165 -3.619939 -2.427653 4.110855 -2.401558 0.000000 0.000000 0.000000 13.671830 1.283458 -4.252531 11.329011 -17.299699 2.311655 -63.620084 -6.074873 -6.941424 43.406911 -26.019602 28.570968 0.000000 0.000000 0.000000 13.751503 1.478571 -3.653755 17.713793 23.903302 -10.210981 -30.958034 6.266349 5.578037 -47.207283 45.494749 35.180272 0.000000 0.000000 0.000000 
-4.692034 119.149704 9.670427 0.000000 0.000000 0.000000 3.655893 -37.274924 0.356892 -98.989904 -21.090234 20.912383 81.844927 -2.079748 9.499881 22.078773 -4.257550 -4.580358 0.000000 0.000000 0.000000 3.344112 -36.207871 -0.818639 -130.468839 -33.925102 -10.220274 113.775461 16.525819 -8.180727 29.204236 8.284194 39.178385 0.000000 0.000000 0.000000 3.334272 -35.801137 0.342888 -0.969533 -0.028221 -0.785014 32.705463 -5.490317 -9.895014 15.728686 0.951737 -2.955492 0.000000 0.000000 0.000000 13.952418 1.191608 -3.629723 -2.437069 4.117265 -2.392926 0.000000 0.000000 0.000000 13.584643 1.258419 -4.253398 11.240444 -17.330669 1.645817 -63.082992 -4.634368 -6.518585 43.576142 -26.080726 28.676300 0.000000 0.000000 0.000000 13.660365 1.453282 -3.664287 17.348756 23.977656 -9.254214 -30.160083 5.599843 5.285400 -47.126751 45.321778 35.182161 0.000000 0.000000 0.000000 
-4.699248 119.122269 9.565136 0.000000 0.000000 0.000000 3.685186 -37.295483 0.492944 -98.808269 -20.796551 21.018317 81.497892 -2.301815 9.340257 22.062597 -3.980600 -4.501624 0.000000 0.000000 0.000000 3.376521 -36.237494 -0.650773 -130.111183 -33.834131 -10.358636 113.542736 16.562889 -8.159604 28.928231 8.117500 39.137780 0.000000 0.000000 0.000000 3.361733 -35.855986 0.475716 -0.984197 -0.030466 -0.782137 32.591412 -5.503558 -9.852731 15.599221 0.934687 -2.966855 0.000000 0.000000 0.000000 13.837906 1.172623 -3.636303 -2.440707 4.122757 -2.394205 0.000000 0.000000 0.000000 13.478290 1.242644 -4.248358 11.128969 -17.285003 0.876177 -62.659254 -3.008779 -5.933816 43.805903 -26.257018 28.883135 0.000000 0.000000 0.000000 13.566455 1.434460 -3.675840 16.971678 23.999015 -8.307383 -29.441090 4.777996 4.852594 -47.112094 45.136660 35.363482 0.000000 0.000000 0.000000 
-4.707129 119.107254 9.483303 0.000000 0.000000 0.000000 3.718192 -37.399705 0.622603 -98.582675 -20.509888 21.070102 81.165166 -2.496042 9.212868 21.975314 -3.762839 -4.525146 0.000000 0.000000 0.000000 3.430176 -36.343088 -0.483079 -129.827867 -33.734195 -10.476867 113.360452 16.579284 -8.136412 28.696586 7.950882 39.099193 0.000000 0.000000 0.000000 3.403958 -35.953242 0.614928 -0.987041 -0.040230 -0.786541 32.457937 -5.505749 -9.800452 15.464967 0.928095 -2.966174 0.000000 0.000000 0.000000 13.727784 1.163248 -3.636301 -2.436401 4.125731 -2.405781 0.000000 0.000000 0.000000 13.355532 1.236775 -4.236834 10.997857 -17.092347 0.059356 -62.340305 -1.237176 -5.210061 44.033079 -26.445144 29.125078 0.000000 0.000000 0.000000 13.471257 1.426940 -3.682742 16.607137 23.931887 -7.451685 -28.853233 3.862036 4.421720 -47.123323 44.939325 35.621998 0.000000 0.000000 0.000000 
-4.726705 119.111252 9.428118 0.000000 0.000000 0.000000 3.770579 -37.595263 0.752067 -98.294967 -20.267116 21.072554 80.847542 -2.642581 9.132688 21.711998 -3.609100 -4.661750 0.000000 0.000000 0.000000 3.510632 -36.536082 -0.320556 -129.615257 -33.620742 -10.556325 113.204279 16.595295 -8.115319 28.541230 7.838419 39.090433 0.000000 0.000000 0.000000 3.470675 -36.113871 0.758867 -1.008369 -0.041885 -0.799659 32.303007 -5.484024 -9.748382 15.328075 0.934908 -2.954219 0.000000 0.000000 0.000000 13.630732 1.166486 -3.625707 -2.424006 4.123057 -2.423311 0.000000 0.000000 0.000000 13.221652 1.242404 -4.220931 10.861952 -16.700012 -0.733218 -62.189371 0.642707 -4.428930 44.186536 -26.564667 29.334191 0.000000 0.000000 0.000000 13.368426 1.433967 -3.679763 16.311479 23.734856 -6.779641 -28.443751 2.848436 4.057820 -47.165772 44.771081 35.891012 0.000000 0.000000 0.000000 
-4.764035 119.139023 9.397917 0.000000 0.000000 0.000000 3.841407 -37.847557 0.875102 -97.955151 -20.089313 21.052914 80.540532 -2.717843 9.087855 21.222241 -3.486185 -4.877920 0.000000 0.000000 0.000000 3.607243 -36.790732 -0.169898 -129.493147 -33.486088 -10.611745 113.072552 16.624028 -8.093907 28.502803 7.802933 39.110155 0.000000 0.000000 0.000000 3.561140 -36.324374 0.899116 -1.026452 -0.044523 -0.826908 32.130590 -5.430932 -9.711924 15.187691 0.961524 -2.939320 0.000000 0.000000 0.000000 13.545833 1.183389 -3.604856 -2.405806 4.111649 -2.442268 0.000000 0.000000 0.000000 13.084154 1.261093 -4.205757 10.737168 -16.075824 -1.409223 -62.222586 2.507748 -3.661839 44.240884 -26.613296 29.475394 0.000000 0.000000 0.000000 13.243074 1.456473 -3.664949 16.119733 23.373652 -6.368250 -28.261955 1.634370 3.797634 -47.264144 44.698790 36.154093 0.000000 0.000000 0.000000 
-4.816991 119.180740 9.399231 0.000000 0.000000 0.000000 3.921480 -38.103416 0.980941 -97.581376 -19.977041 21.026372 80.259962 -2.705712 9.067921 20.518337 -3.350930 -5.120672 0.000000 0.000000 0.000000 3.718431 -37.049111 -0.043486 -129.457821 -33.331094 -10.645114 112.983678 16.666536 -8.076271 28.577445 7.823031 39.135973 0.000000 0.000000 0.000000 3.671603 -36.552884 1.027746 -1.027332 -0.048340 -0.851502 31.954808 -5.354295 -9.704578 15.049019 1.002047 -2.928965 0.000000 0.000000 0.000000 13.453995 1.208323 -3.582889 -2.390423 4.091522 -2.460350 0.000000 0.000000 0.000000 12.947035 1.292170 -4.199059 10.641681 -15.247202 -1.872761 -62.434650 4.221947 -2.928178 44.266323 -26.616988 29.586303 0.000000 0.000000 0.000000 13.103672 1.494317 -3.646684 16.017634 22.888951 -6.198208 -28.237139 0.147924 3.569749 -47.503785 44.803691 36.462548 0.000000 0.000000 0.000000 
